<svg id="visual" viewBox="0 0 900 600" width="900" height="600" xmlns="http://www.w3.org/2000/svg" xmlns:xlink="http://www.w3.org/1999/xlink" version="1.1"><rect x="0" y="0" width="900" height="600" fill="#001220"></rect><defs><linearGradient id="grad1_0" x1="33.3%" y1="0%" x2="100%" y2="100%"><stop offset="20%" stop-color="#fbae3c" stop-opacity="1"></stop><stop offset="80%" stop-color="#fbae3c" stop-opacity="1"></stop></linearGradient></defs><defs><linearGradient id="grad1_1" x1="33.3%" y1="0%" x2="100%" y2="100%"><stop offset="20%" stop-color="#fbae3c" stop-opacity="1"></stop><stop offset="80%" stop-color="#96446e" stop-opacity="1"></stop></linearGradient></defs><defs><linearGradient id="grad1_2" x1="33.3%" y1="0%" x2="100%" y2="100%"><stop offset="20%" stop-color="#001220" stop-opacity="1"></stop><stop offset="80%" stop-color="#96446e" stop-opacity="1"></stop></linearGradient></defs><defs><linearGradient id="grad2_0" x1="0%" y1="0%" x2="66.7%" y2="100%"><stop offset="20%" stop-color="#fbae3c" stop-opacity="1"></stop><stop offset="80%" stop-color="#fbae3c" stop-opacity="1"></stop></linearGradient></defs><defs><linearGradient id="grad2_1" x1="0%" y1="0%" x2="66.7%" y2="100%"><stop offset="20%" stop-color="#96446e" stop-opacity="1"></stop><stop offset="80%" stop-color="#fbae3c" stop-opacity="1"></stop></linearGradient></defs><defs><linearGradient id="grad2_2" x1="0%" y1="0%" x2="66.7%" y2="100%"><stop offset="20%" stop-color="#96446e" stop-opacity="1"></stop><stop offset="80%" stop-color="#001220" stop-opacity="1"></stop></linearGradient></defs><g transform="translate(900, 0)"><path d="M0 486.7C-52.5 482 -105 477.2 -148 455.6C-191 433.9 -224.5 395.4 -266.9 367.3C-309.2 339.1 -360.6 321.3 -393.8 286.1C-427 250.9 -442.1 198.3 -454.6 147.7C-467.1 97.1 -476.9 48.6 -486.7 0L0 0Z" fill="#3d3056"></path><path d="M0 324.5C-35 321.3 -70 318.1 -98.7 303.7C-127.3 289.3 -149.6 263.6 -177.9 244.9C-206.2 226.1 -240.4 214.2 -262.5 190.7C-284.7 167.3 -294.8 132.2 -303.1 98.5C-311.4 64.8 -317.9 32.4 -324.5 0L0 0Z" fill="#e1685e"></path><path d="M0 162.2C-17.5 160.7 -35 159.1 -49.3 151.9C-63.7 144.6 -74.8 131.8 -89 122.4C-103.1 113 -120.2 107.1 -131.3 95.4C-142.3 83.6 -147.4 66.1 -151.5 49.2C-155.7 32.4 -159 16.2 -162.2 0L0 0Z" fill="#fbae3c"></path></g><g transform="translate(0, 600)"><path d="M0 -486.7C43.6 -459.2 87.2 -431.6 136.6 -420.4C186 -409.1 241.1 -414.1 286.1 -393.8C331.1 -373.4 365.8 -327.7 386.7 -281C407.6 -234.2 414.6 -186.4 428.9 -139.4C443.3 -92.4 465 -46.2 486.7 0L0 0Z" fill="#3d3056"></path><path d="M0 -324.5C29.1 -306.1 58.1 -287.8 91.1 -280.2C124 -272.7 160.8 -276.1 190.7 -262.5C220.7 -249 243.9 -218.5 257.8 -187.3C271.7 -156.1 276.4 -124.2 286 -92.9C295.5 -61.6 310 -30.8 324.5 0L0 0Z" fill="#e1685e"></path><path d="M0 -162.2C14.5 -153.1 29.1 -143.9 45.5 -140.1C62 -136.4 80.4 -138 95.4 -131.3C110.4 -124.5 121.9 -109.2 128.9 -93.7C135.9 -78.1 138.2 -62.1 143 -46.5C147.8 -30.8 155 -15.4 162.2 0L0 0Z" fill="#fbae3c"></path></g></svg>